<svg width="997" height="205" viewBox="0 0 997 205" fill="none" xmlns="http://www.w3.org/2000/svg">
<g clip-path="url(#clip0_302_3)">
<circle cx="921" cy="87" r="60" fill="url(#paint0_linear_302_3)"/>
<path d="M76.3636 124.094C75.6676 121.674 74.6899 119.536 73.4304 117.68C72.1709 115.791 70.6297 114.2 68.8068 112.908C67.017 111.582 64.9621 110.571 62.642 109.875C60.3551 109.179 57.8196 108.831 55.0355 108.831C49.8319 108.831 45.2581 110.124 41.3139 112.709C37.4029 115.294 34.3537 119.056 32.1662 123.994C29.9787 128.9 28.8849 134.899 28.8849 141.991C28.8849 149.084 29.9621 155.116 32.1165 160.088C34.2708 165.06 37.3201 168.855 41.2642 171.473C45.2083 174.058 49.8651 175.351 55.2344 175.351C60.1065 175.351 64.2661 174.489 67.7131 172.766C71.1932 171.009 73.8447 168.54 75.6676 165.358C77.5237 162.176 78.4517 158.414 78.4517 154.072L82.8267 154.719H56.5767V138.511H99.1832V151.338C99.1832 160.287 97.294 167.976 93.5156 174.406C89.7372 180.803 84.5336 185.741 77.9048 189.222C71.276 192.669 63.6861 194.392 55.1349 194.392C45.5895 194.392 37.2041 192.287 29.9787 188.078C22.7533 183.836 17.1188 177.82 13.0753 170.031C9.06487 162.209 7.05966 152.929 7.05966 142.19C7.05966 133.937 8.25284 126.58 10.6392 120.116C13.0587 113.62 16.4394 108.118 20.7812 103.611C25.1231 99.1032 30.1776 95.6728 35.9446 93.3196C41.7116 90.9664 47.9593 89.7898 54.6875 89.7898C60.4545 89.7898 65.8239 90.6349 70.7955 92.3253C75.767 93.9825 80.1752 96.3357 84.0199 99.3849C87.8977 102.434 91.063 106.063 93.5156 110.273C95.9683 114.449 97.5426 119.056 98.2386 124.094H76.3636ZM136.135 148.852V193H114.956V91.1818H135.538V130.109H136.433C138.156 125.602 140.94 122.072 144.785 119.52C148.63 116.935 153.452 115.642 159.252 115.642C164.556 115.642 169.179 116.802 173.123 119.122C177.101 121.409 180.183 124.707 182.37 129.016C184.591 133.291 185.685 138.412 185.652 144.378V193H164.473V148.156C164.506 143.45 163.313 139.787 160.893 137.169C158.507 134.551 155.159 133.241 150.85 133.241C147.967 133.241 145.415 133.855 143.194 135.081C141.007 136.307 139.283 138.097 138.024 140.45C136.797 142.77 136.168 145.571 136.135 148.852ZM224.094 194.442C219.222 194.442 214.88 193.597 211.069 191.906C207.257 190.183 204.241 187.647 202.021 184.3C199.833 180.919 198.739 176.71 198.739 171.672C198.739 167.429 199.518 163.866 201.076 160.983C202.634 158.099 204.755 155.779 207.44 154.023C210.124 152.266 213.174 150.94 216.587 150.045C220.034 149.151 223.647 148.521 227.425 148.156C231.867 147.692 235.446 147.261 238.164 146.864C240.882 146.433 242.854 145.803 244.08 144.974C245.307 144.146 245.92 142.92 245.92 141.295V140.997C245.92 137.848 244.925 135.412 242.937 133.689C240.981 131.965 238.197 131.104 234.585 131.104C230.773 131.104 227.74 131.949 225.487 133.639C223.233 135.296 221.741 137.384 221.012 139.903L201.424 138.312C202.418 133.672 204.374 129.662 207.29 126.281C210.207 122.867 213.969 120.249 218.576 118.426C223.216 116.57 228.585 115.642 234.684 115.642C238.926 115.642 242.987 116.139 246.864 117.134C250.775 118.128 254.239 119.669 257.255 121.757C260.304 123.845 262.707 126.53 264.464 129.811C266.22 133.059 267.099 136.954 267.099 141.494V193H247.013V182.411H246.417C245.191 184.797 243.55 186.902 241.495 188.724C239.44 190.514 236.971 191.923 234.087 192.95C231.204 193.945 227.873 194.442 224.094 194.442ZM230.16 179.825C233.275 179.825 236.026 179.212 238.413 177.986C240.799 176.726 242.672 175.036 244.031 172.915C245.389 170.794 246.069 168.391 246.069 165.706V157.602C245.406 158.033 244.495 158.431 243.335 158.795C242.208 159.127 240.932 159.442 239.506 159.74C238.081 160.005 236.656 160.254 235.231 160.486C233.806 160.685 232.513 160.867 231.353 161.033C228.867 161.397 226.696 161.977 224.84 162.773C222.984 163.568 221.542 164.645 220.515 166.004C219.487 167.33 218.974 168.987 218.974 170.976C218.974 173.859 220.018 176.063 222.106 177.588C224.227 179.08 226.912 179.825 230.16 179.825ZM283.53 193V116.636H304.062V129.96H304.858C306.25 125.221 308.587 121.641 311.868 119.222C315.149 116.769 318.928 115.543 323.203 115.543C324.264 115.543 325.407 115.609 326.634 115.741C327.86 115.874 328.937 116.056 329.865 116.288V135.081C328.871 134.783 327.495 134.518 325.739 134.286C323.982 134.054 322.375 133.938 320.916 133.938C317.801 133.938 315.017 134.617 312.564 135.976C310.144 137.302 308.222 139.158 306.797 141.544C305.405 143.93 304.709 146.681 304.709 149.797V193H283.53ZM377.306 193H341.213V91.1818H377.605C387.846 91.1818 396.663 93.2202 404.054 97.2969C411.445 101.34 417.129 107.157 421.106 114.747C425.117 122.337 427.122 131.419 427.122 141.991C427.122 152.598 425.117 161.712 421.106 169.335C417.129 176.958 411.412 182.808 403.954 186.885C396.53 190.962 387.647 193 377.306 193ZM362.74 174.555H376.412C382.775 174.555 388.128 173.429 392.47 171.175C396.845 168.888 400.126 165.358 402.314 160.585C404.534 155.779 405.645 149.581 405.645 141.991C405.645 134.468 404.534 128.32 402.314 123.547C400.126 118.774 396.861 115.261 392.52 113.007C388.178 110.753 382.825 109.626 376.461 109.626H362.74V174.555ZM477.472 194.491C469.616 194.491 462.855 192.901 457.188 189.719C451.553 186.504 447.211 181.963 444.162 176.097C441.113 170.197 439.588 163.22 439.588 155.166C439.588 147.311 441.113 140.417 444.162 134.484C447.211 128.552 451.503 123.928 457.038 120.614C462.607 117.299 469.136 115.642 476.626 115.642C481.664 115.642 486.354 116.454 490.696 118.078C495.071 119.669 498.883 122.072 502.131 125.287C505.412 128.502 507.964 132.545 509.787 137.418C511.61 142.257 512.521 147.924 512.521 154.42V160.237H448.04V147.112H492.585C492.585 144.063 491.922 141.362 490.597 139.009C489.271 136.655 487.431 134.816 485.078 133.49C482.758 132.131 480.057 131.452 476.974 131.452C473.759 131.452 470.909 132.197 468.423 133.689C465.971 135.147 464.048 137.119 462.656 139.605C461.264 142.058 460.552 144.792 460.518 147.808V160.287C460.518 164.065 461.214 167.33 462.607 170.081C464.032 172.832 466.037 174.953 468.622 176.445C471.207 177.936 474.273 178.682 477.82 178.682C480.173 178.682 482.327 178.35 484.283 177.688C486.238 177.025 487.912 176.03 489.304 174.705C490.696 173.379 491.757 171.755 492.486 169.832L512.074 171.125C511.08 175.831 509.041 179.941 505.959 183.455C502.91 186.935 498.965 189.652 494.126 191.608C489.321 193.53 483.769 194.491 477.472 194.491ZM545.533 171.026L545.582 145.621H548.665L573.125 116.636H597.436L564.574 155.017H559.553L545.533 171.026ZM526.342 193V91.1818H547.521V193H526.342ZM574.07 193L551.598 159.74L565.717 144.776L598.878 193H574.07ZM629.006 148.852V193H607.827V91.1818H628.409V130.109H629.304C631.027 125.602 633.812 122.072 637.656 119.52C641.501 116.935 646.323 115.642 652.124 115.642C657.427 115.642 662.05 116.802 665.994 119.122C669.972 121.409 673.054 124.707 675.241 129.016C677.462 133.291 678.556 138.412 678.523 144.378V193H657.344V148.156C657.377 143.45 656.184 139.787 653.764 137.169C651.378 134.551 648.03 133.241 643.722 133.241C640.838 133.241 638.286 133.855 636.065 135.081C633.878 136.307 632.154 138.097 630.895 140.45C629.669 142.77 629.039 145.571 629.006 148.852ZM729.693 194.491C721.97 194.491 715.292 192.851 709.657 189.57C704.056 186.255 699.731 181.648 696.681 175.749C693.632 169.816 692.108 162.938 692.108 155.116C692.108 147.228 693.632 140.334 696.681 134.435C699.731 128.502 704.056 123.895 709.657 120.614C715.292 117.299 721.97 115.642 729.693 115.642C737.415 115.642 744.077 117.299 749.679 120.614C755.313 123.895 759.655 128.502 762.704 134.435C765.753 140.334 767.278 147.228 767.278 155.116C767.278 162.938 765.753 169.816 762.704 175.749C759.655 181.648 755.313 186.255 749.679 189.57C744.077 192.851 737.415 194.491 729.693 194.491ZM729.792 178.085C733.306 178.085 736.239 177.091 738.592 175.102C740.945 173.08 742.718 170.33 743.912 166.849C745.138 163.369 745.751 159.409 745.751 154.967C745.751 150.526 745.138 146.565 743.912 143.085C742.718 139.605 740.945 136.854 738.592 134.832C736.239 132.811 733.306 131.8 729.792 131.8C726.246 131.8 723.263 132.811 720.843 134.832C718.457 136.854 716.651 139.605 715.424 143.085C714.231 146.565 713.635 150.526 713.635 154.967C713.635 159.409 714.231 163.369 715.424 166.849C716.651 170.33 718.457 173.08 720.843 175.102C723.263 177.091 726.246 178.085 729.792 178.085ZM794.212 193H771.143L806.293 91.1818H834.034L869.134 193H846.065L820.561 114.449H819.766L794.212 193ZM792.77 152.979H847.259V169.783H792.77V152.979ZM902.915 91.1818V193H881.388V91.1818H902.915Z" fill="white"/>
</g>
<defs>
<linearGradient id="paint0_linear_302_3" x1="865.2" y1="89.4" x2="973.2" y2="87" gradientUnits="userSpaceOnUse">
<stop stop-color="#9AAEFA"/>
<stop offset="1" stop-color="#3A59D3"/>
</linearGradient>
<clipPath id="clip0_302_3">
<rect width="997" height="205" fill="white"/>
</clipPath>
</defs>
</svg>
